<svg xmlns="http://www.w3.org/2000/svg" id="downvote" version="1.1" viewBox="0 0 64 64">
  <path d="M56.6,53.2l-3.6-2.7v-6.5c0-1.654-1.346-3-3-3h-5c-.553,0-1,.447-1,1s.447,1,1,1h5c.552,0,1,.448,1,1v7c0,.314.148.611.4.8l1.6,1.2h-31c-.552,0-1-.448-1-1v-8c0-.552.448-1,1-1h19c.553,0,1-.447,1-1s-.447-1-1-1h-19c-1.654,0-3,1.346-3,3v8c0,1.654,1.346,3,3,3h34c.431,0,.812-.275.948-.684.137-.408-.004-.858-.349-1.116Z"></path>
  <path d="M49 46c0-.553-.447-1-1-1h-24c-.553 0-1 .447-1 1s.447 1 1 1h24c.553 0 1-.447 1-1ZM24 49c-.553 0-1 .447-1 1s.447 1 1 1h14c.553 0 1-.447 1-1s-.447-1-1-1h-14ZM50 21h-17c-.55 0-1 .45-1 1s.45 1 1 1h17c.55 0 1 .45 1 1v12c0 .55-.45 1-1 1H14c-.55 0-1-.45-1-1v-9.53c.94.34 1.95.53 3 .53h32c.55 0 1-.45 1-1s-.45-1-1-1h-26.36c.71-.57 1.33-1.24 1.84-2h5.52c.55 0 1-.45 1-1s-.45-1-1-1h-4.53c.34-.94.53-1.95.53-3 0-4.96-4.04-9-9-9s-9 4.04-9 9c0 3.11 1.59 5.86 4 7.48v10.52c0 1.65 1.35 3 3 3h36c1.65 0 3-1.35 3-3v-12c0-1.65-1.35-3-3-3ZM9 18c0-3.86 3.14-7 7-7s7 3.14 7 7-3.14 7-7 7-7-3.14-7-7Z"></path>
  <path d="M39 30c0-.553-.447-1-1-1h-22c-.553 0-1 .447-1 1s.447 1 1 1h22c.553 0 1-.447 1-1ZM30 35h18c.553 0 1-.447 1-1s-.447-1-1-1h-18c-.553 0-1 .447-1 1s.447 1 1 1ZM48 29h-6c-.553 0-1 .447-1 1s.447 1 1 1h6c.553 0 1-.447 1-1s-.447-1-1-1ZM16 33c-.553 0-1 .447-1 1s.447 1 1 1h10c.553 0 1-.447 1-1s-.447-1-1-1h-10ZM15.293 21.707c.195.195.451.293.707.293s.512-.098.707-.293l2-2c.391-.391.391-1.023 0-1.414s-1.023-.391-1.414 0l-.293.293v-3.586c0-.553-.447-1-1-1s-1 .447-1 1v3.586l-.293-.293c-.391-.391-1.023-.391-1.414 0s-.391 1.023 0 1.414l2 2Z"></path>
</svg>
